<svg xmlns="http://www.w3.org/2000/svg" version="1.1" xmlns:xlink="http://www.w3.org/1999/xlink" xmlns:svgjs="http://svgjs.dev/svgjs" width="1000" height="1000" viewBox="0 0 1000 1000"><rect width="1000" height="1000" fill="#dedede"></rect><g transform="matrix(0.7,0,0,0.7,150.1323344500998,214.40002582023175)"><svg viewBox="0 0 343 280" data-background-color="#dedede" preserveAspectRatio="xMidYMid meet" height="816" width="1000" xmlns="http://www.w3.org/2000/svg" xmlns:xlink="http://www.w3.org/1999/xlink"><g id="tight-bounds" transform="matrix(1,0,0,1,-0.06484388054889223,0.00001265697633812124)"><svg viewBox="0 0 343.1296877610978 280" height="280" width="343.1296877610978"><g><svg viewBox="0 0 395.52 322.7514375762963" height="280" width="343.1296877610978"><g><svg viewBox="0 0 395.52 322.7514375762963" height="322.7514375762963" width="395.52"><g><svg viewBox="0 0 395.52 322.7514375762963" height="322.7514375762963" width="395.52"><g><svg viewBox="0 0 395.52 278.2696" height="278.2696" width="395.52"><g transform="matrix(1,0,0,1,104.53504196836558,73.54602628064397)"><svg viewBox="0 0 186.44991606326883 131.17754743871208" height="131.17754743871208" width="186.44991606326883"><g><circle r="66" cx="93.22495803163442" cy="65.58877371935604" fill="#374151" data-fill-palette-color="accent"></circle></g></svg></g><path d="M83.423 99.715V99.715C85.626 100.402 87.11 101.415 87.877 102.754 88.641 104.099 88.684 105.86 88.005 108.038V108.038C87.728 108.925 87.386 109.698 86.978 110.355 86.574 111.021 86.248 111.536 86.002 111.9V111.9C85.897 112.078 85.769 112.196 85.618 112.254 85.467 112.311 85.264 112.29 85.008 112.189V112.189L82.772 111.135C82.423 110.998 82.332 110.784 82.5 110.493V110.493C82.733 110.173 82.993 109.834 83.28 109.475 83.558 109.12 83.802 108.608 84.011 107.938V107.938C84.34 106.884 84.296 106.037 83.879 105.395 83.465 104.748 82.514 104.192 81.026 103.728V103.728L62.139 97.838C61.775 97.724 61.641 97.514 61.737 97.208V97.208L62.812 93.76C62.901 93.473 63.128 93.386 63.492 93.499V93.499ZM106.791 73.001V73.001C105.287 75.042 103.544 76.465 101.561 77.272 99.575 78.085 97.439 78.255 95.153 77.783 92.863 77.316 90.507 76.19 88.084 74.404V74.404C85.64 72.602 83.849 70.659 82.71 68.573 81.567 66.484 81.079 64.362 81.245 62.208 81.418 60.059 82.248 57.974 83.736 55.956V55.956C85.208 53.958 86.942 52.565 88.937 51.775 90.937 50.989 93.094 50.835 95.41 51.312 97.72 51.786 100.097 52.923 102.541 54.725V54.725C104.964 56.511 106.739 58.426 107.866 60.47 108.993 62.514 109.468 64.609 109.29 66.754 109.113 68.9 108.28 70.983 106.791 73.001ZM104.118 70.981V70.981C105.606 68.962 106.009 66.945 105.326 64.929 104.643 62.914 102.789 60.791 99.764 58.56V58.56C96.695 56.298 94.065 55.132 91.873 55.062 89.681 54.992 87.857 55.944 86.401 57.92V57.92C84.913 59.939 84.528 61.994 85.246 64.086 85.968 66.172 87.853 68.338 90.9 70.584V70.584C93.909 72.803 96.49 73.929 98.643 73.962 100.805 73.993 102.63 73 104.118 70.981ZM130.407 49.162V49.162C130.26 49.255 130.118 49.286 129.979 49.255 129.841 49.224 129.731 49.144 129.648 49.014V49.014L115.331 26.422C115.223 26.253 115.187 26.09 115.222 25.933 115.258 25.776 115.349 25.651 115.496 25.558V25.558L123.215 20.665C126.142 18.811 128.717 17.908 130.94 17.955 133.169 17.999 134.921 19.027 136.196 21.038V21.038C136.987 22.287 137.324 23.542 137.205 24.805 137.081 26.071 136.466 27.443 135.359 28.92V28.92C135.289 28.997 135.277 29.072 135.324 29.145 135.37 29.218 135.443 29.24 135.542 29.209V29.209C137.375 28.64 138.975 28.553 140.341 28.947 141.701 29.344 142.859 30.296 143.815 31.805V31.805C145.168 33.94 145.375 36.034 144.435 38.087 143.495 40.139 141.5 42.132 138.449 44.066V44.066ZM132.414 44.101L136.575 41.465C138.439 40.283 139.625 39.08 140.132 37.856 140.63 36.63 140.476 35.382 139.67 34.111V34.111C139.08 33.179 138.371 32.567 137.545 32.275 136.724 31.979 135.833 31.942 134.873 32.163 133.915 32.389 132.94 32.817 131.945 33.448V33.448L127.624 36.186C127.285 36.401 127.201 36.644 127.373 36.915V36.915L131.766 43.847C131.967 44.163 132.183 44.248 132.414 44.101ZM125.691 33.492L130.173 30.651C130.766 30.275 131.305 29.851 131.789 29.378 132.279 28.901 132.666 28.375 132.95 27.799 133.236 27.213 133.365 26.598 133.335 25.951 133.308 25.296 133.074 24.62 132.633 23.925V23.925C131.814 22.632 130.726 21.959 129.371 21.907 128.019 21.861 126.561 22.334 124.996 23.326V23.326L121.022 25.844C120.706 26.045 120.635 26.284 120.811 26.56V26.56L125.059 33.263C125.248 33.563 125.459 33.639 125.691 33.492ZM178.488 6.498V6.498C177.701 5.914 176.79 5.457 175.754 5.128 174.713 4.807 173.442 4.798 171.941 5.103V5.103C170.197 5.456 168.913 6.092 168.089 7.01 167.267 7.934 166.985 9.035 167.244 10.313V10.313C167.314 10.654 167.481 11.043 167.747 11.481 168.012 11.912 168.453 12.286 169.07 12.605 169.689 12.93 170.537 13.174 171.614 13.338V13.338L177.503 13.955C179.878 14.19 181.678 14.842 182.905 15.91 184.132 16.979 184.917 18.362 185.261 20.059V20.059C185.59 21.678 185.464 23.161 184.884 24.507 184.297 25.854 183.314 26.996 181.934 27.931 180.547 28.867 178.808 29.547 176.717 29.971V29.971C175.171 30.285 173.702 30.395 172.311 30.302 170.928 30.213 169.655 29.922 168.49 29.428 167.325 28.934 166.296 28.252 165.403 27.383V27.383C165.27 27.232 165.202 27.079 165.197 26.923 165.194 26.773 165.276 26.603 165.442 26.412V26.412L166.998 24.797C167.232 24.572 167.423 24.455 167.571 24.445 167.728 24.441 167.883 24.501 168.038 24.627V24.627C168.807 25.29 169.561 25.826 170.299 26.236 171.039 26.653 171.844 26.906 172.715 26.995 173.593 27.083 174.622 27.008 175.802 26.768V26.768C177.644 26.395 179.059 25.77 180.049 24.894 181.031 24.019 181.378 22.867 181.088 21.438V21.438C180.974 20.874 180.763 20.388 180.455 19.98 180.139 19.566 179.67 19.224 179.049 18.955 178.434 18.683 177.572 18.469 176.462 18.312V18.312L170.53 17.632C169.033 17.451 167.773 17.078 166.751 16.514 165.731 15.957 164.916 15.252 164.306 14.4 163.704 13.553 163.304 12.638 163.104 11.655V11.655C162.785 10.081 162.909 8.623 163.476 7.28 164.05 5.935 164.995 4.788 166.31 3.839 167.634 2.895 169.266 2.226 171.206 1.833V1.833C172.51 1.568 173.738 1.48 174.888 1.567 176.046 1.653 177.135 1.879 178.158 2.245 179.181 2.611 180.088 3.113 180.879 3.751V3.751C181.002 3.849 181.095 3.956 181.16 4.073 181.224 4.189 181.183 4.337 181.035 4.518V4.518L179.27 6.565C179.139 6.694 179.027 6.75 178.936 6.735 178.842 6.713 178.693 6.634 178.488 6.498ZM208.874 2.838L209.224 0.455C209.25 0.283 209.312 0.157 209.412 0.077 209.517 0.005 209.669-0.017 209.868 0.013V0.013L230.294 3.017C230.493 3.046 230.625 3.11 230.692 3.207 230.751 3.311 230.768 3.448 230.743 3.621V3.621L230.393 6.003C230.349 6.3 230.152 6.424 229.801 6.372V6.372L222.436 5.289C222.165 5.249 222.013 5.341 221.98 5.566V5.566L218.541 28.941C218.487 29.311 218.298 29.473 217.973 29.425V29.425L214.47 28.91C214.152 28.863 214.019 28.664 214.071 28.314V28.314L217.503 4.979C217.543 4.707 217.424 4.551 217.146 4.511V4.511L209.334 3.362C208.984 3.31 208.83 3.135 208.874 2.838ZM258.835 13.82V13.82C259.013 13.483 259.258 13.397 259.572 13.562V13.562L275.075 21.738C275.341 21.878 275.398 22.093 275.245 22.383V22.383L274.105 24.459C273.927 24.796 273.672 24.877 273.341 24.702V24.702L262.027 18.736C261.695 18.561 261.455 18.616 261.305 18.9V18.9L257.688 25.759C257.535 26.049 257.603 26.271 257.893 26.423V26.423L266.013 30.705C266.297 30.855 266.369 31.063 266.228 31.329V31.329L265.054 33.557C264.994 33.669 264.921 33.744 264.833 33.781 264.746 33.818 264.613 33.79 264.436 33.696V33.696L256.281 29.395C256.015 29.255 255.817 29.306 255.69 29.548V29.548L251.899 36.736C251.768 36.985 251.812 37.167 252.031 37.282V37.282L263.984 43.586C264.292 43.748 264.375 43.962 264.235 44.229V44.229L263.079 46.42C263.007 46.557 262.919 46.646 262.813 46.688 262.707 46.731 262.566 46.706 262.388 46.612V46.612L246.646 38.31C246.267 38.11 246.171 37.833 246.359 37.478V37.478ZM298.794 41.99V41.99C299.076 41.732 299.336 41.734 299.575 41.996V41.996L311.412 54.922C311.615 55.143 311.596 55.365 311.354 55.586V55.586L309.581 57.156C309.3 57.413 309.032 57.404 308.78 57.128V57.128L300.141 47.694C299.888 47.418 299.643 47.388 299.407 47.605V47.605L293.687 52.842C293.445 53.063 293.435 53.295 293.657 53.537V53.537L299.856 60.307C300.073 60.543 300.07 60.763 299.848 60.967V60.967L297.991 62.667C297.897 62.753 297.803 62.799 297.708 62.804 297.613 62.809 297.498 62.738 297.363 62.59V62.59L291.136 55.79C290.933 55.568 290.73 55.55 290.528 55.735V55.735L284.535 61.223C284.328 61.413 284.308 61.599 284.475 61.781V61.781L293.601 71.748C293.836 72.004 293.842 72.234 293.62 72.437V72.437L291.793 74.111C291.679 74.215 291.566 74.269 291.452 74.273 291.338 74.278 291.213 74.206 291.078 74.058V74.058L279.059 60.932C278.77 60.617 278.773 60.323 279.069 60.052V60.052ZM310.247 111.46V111.46C310.09 111.604 309.917 111.667 309.729 111.65 309.548 111.631 309.419 111.528 309.343 111.342V111.342L307.959 107.963C307.845 107.684 307.924 107.41 308.196 107.139V107.139L317.038 98.553C317.269 98.321 317.289 97.973 317.099 97.509V97.509L315.019 92.431C314.953 92.27 314.864 92.176 314.752 92.15 314.649 92.127 314.551 92.135 314.458 92.173V92.173L303.986 96.462C303.565 96.634 303.264 96.5 303.084 96.061V96.061L301.871 93.099C301.775 92.864 301.757 92.687 301.817 92.569 301.877 92.45 302 92.353 302.185 92.277V92.277L326.936 82.14C327.289 81.996 327.532 82.088 327.667 82.416V82.416L331.785 92.47C332.956 95.33 333.285 97.793 332.773 99.86 332.265 101.918 330.896 103.404 328.668 104.317V104.317C327.387 104.841 326.189 105.05 325.076 104.942 323.959 104.828 322.962 104.511 322.083 103.989 321.205 103.467 320.462 102.828 319.856 102.071V102.071C319.722 101.938 319.564 101.949 319.381 102.103V102.103ZM320.051 96.3V96.3C320.794 98.113 321.701 99.35 322.774 100.009 323.846 100.669 325.112 100.699 326.573 100.101V100.101C327.966 99.531 328.832 98.673 329.173 97.529 329.52 96.382 329.371 95.02 328.724 93.442V93.442L326.458 87.908C326.306 87.537 326.091 87.408 325.812 87.522V87.522L318.292 90.602C317.964 90.737 317.852 90.931 317.956 91.184V91.184ZM76.762 189.866V189.866C74.528 190.565 72.706 190.574 71.295 189.893 69.884 189.213 68.833 187.769 68.143 185.56V185.56C67.864 184.666 67.699 183.828 67.651 183.044 67.608 182.258 67.583 181.639 67.575 181.186V181.186C67.566 180.979 67.607 180.808 67.698 180.675 67.788 180.535 67.967 180.436 68.237 180.38V180.38L70.704 179.967C71.076 179.878 71.277 180.005 71.306 180.346V180.346C71.299 180.748 71.279 181.178 71.247 181.636 71.223 182.099 71.317 182.669 71.529 183.345V183.345C71.862 184.412 72.388 185.095 73.105 185.396 73.821 185.691 74.932 185.603 76.439 185.132V185.132L95.58 179.149C95.944 179.035 96.175 179.135 96.273 179.448V179.448L97.365 182.943C97.457 183.237 97.321 183.44 96.957 183.554V183.554ZM90.052 226.693V226.693C88.532 224.631 87.675 222.516 87.482 220.349 87.292 218.187 87.766 216.068 88.902 213.992 90.048 211.917 91.849 209.975 94.304 208.165V208.165C96.775 206.343 99.192 205.193 101.556 204.713 103.919 204.233 106.118 204.399 108.153 205.208 110.184 206.013 111.953 207.438 113.461 209.484V209.484C114.954 211.508 115.782 213.606 115.946 215.779 116.11 217.951 115.615 220.086 114.461 222.183 113.307 224.281 111.491 226.242 109.015 228.068V228.068C106.56 229.878 104.175 231.021 101.86 231.499 99.54 231.971 97.37 231.8 95.351 230.988 93.327 230.17 91.561 228.738 90.052 226.693ZM92.806 224.713V224.713C94.314 226.758 96.146 227.755 98.301 227.703 100.458 227.642 103.071 226.48 106.139 224.218V224.218C109.245 221.928 111.163 219.733 111.892 217.633 112.62 215.534 112.245 213.48 110.764 211.472V211.472C109.256 209.427 107.382 208.44 105.142 208.513 102.902 208.585 100.24 209.759 97.155 212.033V212.033C94.103 214.283 92.238 216.448 91.56 218.526 90.882 220.605 91.297 222.667 92.806 224.713ZM119.588 255.045V255.045C119.442 254.952 119.353 254.836 119.322 254.698 119.285 254.556 119.308 254.42 119.39 254.29V254.29L133.901 231.393C134.012 231.218 134.148 231.115 134.311 231.083 134.468 231.048 134.62 231.077 134.767 231.17V231.17L142.597 236.132C145.557 238.008 147.5 239.977 148.428 242.037 149.349 244.094 149.162 246.145 147.866 248.19V248.19C147.064 249.455 146.058 250.306 144.847 250.742 143.636 251.179 142.113 251.207 140.279 250.829V250.829C140.183 250.792 140.11 250.813 140.06 250.892 140.014 250.966 140.026 251.04 140.096 251.117V251.117C141.411 252.552 142.185 253.981 142.416 255.402 142.639 256.826 142.266 258.3 141.3 259.825V259.825C139.925 261.995 138.094 263.091 135.807 263.114 133.519 263.137 130.831 262.17 127.74 260.212V260.212ZM125.094 254.698L129.314 257.372C131.201 258.568 132.815 259.132 134.157 259.064 135.493 258.992 136.569 258.312 137.386 257.024V257.024C137.983 256.081 138.242 255.167 138.16 254.284 138.069 253.403 137.715 252.569 137.097 251.782 136.482 251.004 135.668 250.294 134.657 249.653V249.653L130.276 246.877C129.932 246.659 129.672 246.688 129.496 246.965V246.965L125.044 253.989C124.84 254.311 124.857 254.548 125.094 254.698ZM131.909 243.945L136.451 246.823C137.05 247.203 137.672 247.514 138.318 247.757 138.964 248 139.614 248.123 140.269 248.126 140.926 248.139 141.545 247.993 142.126 247.688 142.717 247.381 143.236 246.875 143.683 246.169V246.169C144.514 244.858 144.659 243.572 144.12 242.312 143.581 241.052 142.514 239.917 140.921 238.907V238.907L136.896 236.356C136.574 236.152 136.325 236.189 136.15 236.465V236.465L131.843 243.261C131.65 243.566 131.672 243.794 131.909 243.945ZM183.503 256.546V256.546C183 255.693 182.327 254.908 181.483 254.191 180.645 253.475 179.466 252.963 177.946 252.654V252.654C176.176 252.295 174.725 252.383 173.593 252.917 172.461 253.452 171.763 254.368 171.499 255.666V255.666C171.429 256.013 171.434 256.444 171.514 256.959 171.588 257.465 171.85 257.989 172.3 258.531 172.748 259.079 173.446 259.644 174.393 260.225V260.225L179.642 263.112C181.761 264.272 183.185 265.595 183.914 267.081 184.638 268.559 184.825 270.156 184.477 271.873V271.873C184.143 273.519 183.435 274.856 182.352 275.885 181.278 276.909 179.909 277.583 178.246 277.908 176.59 278.234 174.703 278.182 172.586 277.752V277.752C171.013 277.433 169.598 276.958 168.341 276.328 167.077 275.696 166.002 274.918 165.118 273.995 164.226 273.077 163.537 272.036 163.049 270.873V270.873C162.979 270.681 162.972 270.512 163.029 270.367 163.086 270.221 163.228 270.093 163.455 269.982V269.982L165.551 269.087C165.855 268.971 166.08 268.939 166.226 268.989 166.372 269.046 166.492 269.162 166.585 269.338V269.338C167.046 270.264 167.539 271.064 168.064 271.737 168.588 272.416 169.24 272.972 170.019 273.403 170.805 273.835 171.794 274.172 172.987 274.415V274.415C174.855 274.794 176.424 274.767 177.692 274.335 178.96 273.903 179.741 272.966 180.033 271.524V271.524C180.15 270.948 180.144 270.407 180.014 269.903 179.878 269.398 179.577 268.896 179.111 268.399 178.639 267.901 177.92 267.359 176.954 266.774V266.774L171.681 263.8C170.356 263.033 169.327 262.186 168.593 261.259 167.86 260.332 167.38 259.355 167.152 258.326 166.917 257.295 166.901 256.282 167.103 255.286V255.286C167.428 253.686 168.121 252.373 169.182 251.347 170.251 250.315 171.587 249.62 173.188 249.262 174.79 248.898 176.578 248.916 178.551 249.317V249.317C179.869 249.584 181.049 249.988 182.093 250.527 183.138 251.06 184.066 251.702 184.876 252.453 185.68 253.196 186.329 254.021 186.821 254.926V254.926C186.9 255.072 186.944 255.21 186.951 255.341 186.965 255.474 186.869 255.598 186.661 255.712V255.712L184.204 256.923C184.033 256.991 183.909 256.997 183.832 256.94 183.747 256.889 183.637 256.757 183.503 256.546ZM204.288 254.578L203.935 252.166C203.91 251.994 203.937 251.855 204.016 251.749 204.089 251.65 204.225 251.586 204.424 251.557V251.557L225.14 248.522C225.338 248.493 225.484 248.515 225.576 248.59 225.662 248.672 225.718 248.799 225.743 248.971V248.971L226.096 251.383C226.141 251.687 225.988 251.865 225.637 251.917V251.917L218.163 253.012C217.885 253.052 217.762 253.185 217.795 253.41V253.41L221.267 277.104C221.322 277.482 221.188 277.694 220.863 277.742V277.742L217.32 278.261C216.989 278.309 216.798 278.158 216.746 277.807V277.807L213.28 254.153C213.24 253.875 213.084 253.756 212.812 253.796V253.796L204.881 254.958C204.53 255.009 204.333 254.882 204.288 254.578ZM242.327 242.618V242.618C242.15 242.281 242.221 242.028 242.541 241.86V241.86L258.265 233.588C258.531 233.448 258.741 233.523 258.893 233.813V233.813L259.988 235.958C260.165 236.295 260.085 236.553 259.748 236.73V236.73L248.268 242.769C247.93 242.947 247.838 243.181 247.99 243.471V243.471L251.647 250.423C251.803 250.719 252.029 250.789 252.325 250.633V250.633L260.556 246.303C260.846 246.151 261.061 246.208 261.201 246.474V246.474L262.392 248.738C262.451 248.851 262.471 248.953 262.452 249.047 262.43 249.149 262.331 249.247 262.153 249.34V249.34L253.887 253.688C253.615 253.832 253.542 254.025 253.67 254.267V254.267L257.505 261.557C257.635 261.805 257.813 261.87 258.038 261.752V261.752L270.158 255.377C270.471 255.212 270.7 255.265 270.843 255.538V255.538L272.015 257.766C272.084 257.896 272.107 258.02 272.086 258.137 272.055 258.251 271.951 258.355 271.774 258.449V258.449L255.81 266.847C255.425 267.049 255.138 266.97 254.948 266.609V266.609ZM272.807 221.858V221.858C272.527 221.6 272.508 221.338 272.753 221.072V221.072L284.77 207.986C284.974 207.765 285.196 207.765 285.438 207.986V207.986L287.191 209.637C287.472 209.895 287.483 210.164 287.225 210.445V210.445L278.451 219.999C278.193 220.28 278.185 220.531 278.426 220.753V220.753L284.212 226.066C284.458 226.292 284.695 226.282 284.921 226.036V226.036L291.211 219.186C291.433 218.945 291.655 218.926 291.876 219.13V219.13L293.761 220.86C293.854 220.946 293.908 221.036 293.921 221.13 293.935 221.234 293.874 221.359 293.738 221.507V221.507L287.421 228.386C287.213 228.613 287.21 228.819 287.412 229.004V229.004L293.478 234.576C293.685 234.766 293.874 234.767 294.046 234.58V234.58L303.309 224.494C303.549 224.233 303.782 224.206 304.009 224.414V224.414L305.863 226.118C305.972 226.217 306.035 226.326 306.055 226.443 306.064 226.561 306.001 226.694 305.866 226.842V226.842L293.665 240.127C293.37 240.448 293.073 240.47 292.773 240.194V240.194ZM327.337 182.914V182.914C327.559 182.919 327.726 182.995 327.839 183.143 327.961 183.287 327.983 183.452 327.907 183.637V183.637L326.498 187.061C326.381 187.345 326.129 187.491 325.743 187.498V187.498L313.25 187.38C312.924 187.383 312.664 187.619 312.47 188.089V188.089L310.351 193.238C310.282 193.405 310.277 193.533 310.334 193.622 310.389 193.717 310.466 193.784 310.565 193.825V193.825L321.178 198.193C321.599 198.367 321.717 198.676 321.534 199.121V199.121L320.301 202.118C320.204 202.353 320.093 202.491 319.967 202.533 319.838 202.582 319.678 202.567 319.487 202.488V202.488L294.419 192.17C294.067 192.025 293.959 191.786 294.097 191.452V191.452L298.289 181.265C299.478 178.377 300.992 176.368 302.832 175.237 304.669 174.113 306.716 174.015 308.973 174.944V174.944C310.266 175.476 311.274 176.18 311.999 177.057 312.725 177.928 313.218 178.865 313.478 179.868 313.737 180.872 313.819 181.86 313.722 182.833V182.833C313.728 183.03 313.851 183.135 314.092 183.148V183.148ZM309.474 186.856V186.856C310.227 185.025 310.453 183.491 310.153 182.253 309.852 181.016 308.96 180.092 307.475 179.481V179.481C306.065 178.9 304.828 178.901 303.764 179.483 302.703 180.059 301.842 181.147 301.183 182.749V182.749L298.877 188.353C298.721 188.73 298.786 188.977 299.07 189.094V189.094L306.687 192.229C307.015 192.364 307.232 192.302 307.339 192.042V192.042ZM61.324 143.656C61.324 137.688 66.163 132.849 72.131 132.849 78.1 132.849 82.939 137.688 82.939 143.656 82.939 149.625 78.1 154.463 72.131 154.463 66.163 154.463 61.324 149.625 61.324 143.656ZM312.581 143.656C312.581 137.688 317.42 132.849 323.389 132.849 329.357 132.849 334.196 137.688 334.196 143.656 334.196 149.625 329.357 154.463 323.389 154.463 317.42 154.463 312.581 149.625 312.581 143.656Z" fill="#374151" data-fill-palette-color="primary"></path></svg></g><g transform="matrix(1,0,0,1,75.54432,295.46666128000004)"><svg viewBox="0 0 244.43135999999998 27.284776296296297" height="27.284776296296297" width="244.43135999999998"><g transform="matrix(1,0,0,1,0,0)"><svg width="244.43135999999998" viewBox="0.3500000238418579 -34.29999923706055 388.75 43.400001525878906" height="27.284776296296297" data-palette-color="#374151"><path d="M8.15 0L0.35-34.3 5.55-34.3 10.4-11.4Q10.8-9.7 11.35-5.75L11.35-5.75 11.55-5.75Q11.9-9.05 12.35-11.4L12.35-11.4 16.35-34.3 22.8-34.3 27-11.4Q27.4-9.4 27.85-5.75L27.85-5.75 28.05-5.75Q28.5-9.45 28.95-11.4L28.95-11.4 33.85-34.3 38.35-34.3 30.55 0 24.6 0 20.25-22.8Q19.85-24.85 19.4-29.05L19.4-29.05 19.2-29.05Q18.7-24.75 18.35-22.8L18.35-22.8 14.05 0 8.15 0ZM50 0.6Q44.95 0.6 42.45-2.7 39.95-6 39.95-13.15L39.95-13.15Q39.95-20.2 42.42-23.55 44.9-26.9 49.9-26.9L49.9-26.9Q54.4-26.9 56.6-23.83 58.8-20.75 58.8-14.1L58.8-14.1 58.8-11.85 44.85-11.85Q44.9-7.55 46.12-5.5 47.35-3.45 50.05-3.45L50.05-3.45Q51.9-3.45 53.02-4.95 54.15-6.45 54.15-9.05L54.15-9.05 58.8-9.05Q58.8-4.55 56.37-1.98 53.95 0.6 50 0.6L50 0.6ZM44.9-15.75L53.9-15.75Q53.9-19.2 52.9-21.03 51.9-22.85 49.9-22.85L49.9-22.85Q47.5-22.85 46.32-21.1 45.15-19.35 44.9-15.75L44.9-15.75ZM82.64 0.6Q78.34 0.6 76.09-1.65 73.84-3.9 73.84-7.3L73.84-7.3Q73.84-7.85 73.87-8.03 73.89-8.2 73.89-8.25L73.89-8.25 78.74-8.25 78.74-7.8Q78.79-5.55 79.92-4.48 81.04-3.4 82.84-3.4L82.84-3.4Q84.44-3.4 85.54-4.33 86.64-5.25 86.64-7L86.64-7Q86.64-8.3 85.97-9.13 85.29-9.95 84.29-10.43 83.29-10.9 81.54-11.5L81.54-11.5Q79.24-12.25 77.82-12.98 76.39-13.7 75.39-15.23 74.39-16.75 74.39-19.25L74.39-19.25Q74.39-22.85 76.74-24.88 79.09-26.9 82.94-26.9L82.94-26.9Q86.59-26.9 88.77-24.88 90.94-22.85 90.94-19.7L90.94-19.7 90.89-18.7 86.04-18.7 86.04-19.05Q86.04-20.75 85.22-21.83 84.39-22.9 82.64-22.9L82.64-22.9Q80.84-22.9 80.02-21.9 79.19-20.9 79.19-19.6L79.19-19.6Q79.19-18 80.37-17.23 81.54-16.45 83.99-15.7L83.99-15.7Q86.39-14.95 87.87-14.2 89.34-13.45 90.42-11.88 91.49-10.3 91.49-7.65L91.49-7.65Q91.49-3.45 89.09-1.43 86.69 0.6 82.64 0.6L82.64 0.6ZM101.59 0.55Q98.84 0.55 97.64-1.3 96.44-3.15 96.44-5.85L96.44-5.85 96.44-22.2 94.04-22.2 94.04-26.3 96.44-26.3 97.34-33.65 101.14-33.65 101.14-26.3 104.79-26.3 104.79-22.2 101.14-22.2 101.14-5.8Q101.14-4.7 101.72-4.1 102.29-3.5 103.39-3.5L103.39-3.5 104.79-3.5 104.79-0.15Q104.24 0.15 103.32 0.35 102.39 0.55 101.59 0.55L101.59 0.55ZM117.54 0.6Q112.49 0.6 109.99-2.7 107.49-6 107.49-13.15L107.49-13.15Q107.49-20.2 109.96-23.55 112.44-26.9 117.44-26.9L117.44-26.9Q121.94-26.9 124.14-23.83 126.34-20.75 126.34-14.1L126.34-14.1 126.34-11.85 112.39-11.85Q112.44-7.55 113.66-5.5 114.89-3.45 117.59-3.45L117.59-3.45Q119.44-3.45 120.56-4.95 121.69-6.45 121.69-9.05L121.69-9.05 126.34-9.05Q126.34-4.55 123.91-1.98 121.49 0.6 117.54 0.6L117.54 0.6ZM112.44-15.75L121.44-15.75Q121.44-19.2 120.44-21.03 119.44-22.85 117.44-22.85L117.44-22.85Q115.04-22.85 113.86-21.1 112.69-19.35 112.44-15.75L112.44-15.75ZM140.34 0.6Q135.29 0.6 132.79-2.7 130.29-6 130.29-13.15L130.29-13.15Q130.29-20.2 132.76-23.55 135.24-26.9 140.24-26.9L140.24-26.9Q144.74-26.9 146.94-23.83 149.14-20.75 149.14-14.1L149.14-14.1 149.14-11.85 135.19-11.85Q135.24-7.55 136.46-5.5 137.69-3.45 140.39-3.45L140.39-3.45Q142.24-3.45 143.36-4.95 144.49-6.45 144.49-9.05L144.49-9.05 149.14-9.05Q149.14-4.55 146.71-1.98 144.29 0.6 140.34 0.6L140.34 0.6ZM135.24-15.75L144.24-15.75Q144.24-19.2 143.24-21.03 142.24-22.85 140.24-22.85L140.24-22.85Q137.84-22.85 136.66-21.1 135.49-19.35 135.24-15.75L135.24-15.75ZM154.03 0L154.03-26.3 157.73-26.3 158.33-22.7 158.63-22.7Q160.03-26.9 163.13-26.9L163.13-26.9Q164.33-26.9 165.23-26.5L165.23-26.5 165.23-21.75 163.63-21.75Q161.48-21.75 160.11-20.3 158.73-18.85 158.73-15.6L158.73-15.6 158.73 0 154.03 0ZM182.18 9.1Q180.13 9.1 178.93 8.7L178.93 8.7 178.93 5.3 180.78 5.3Q184.43 5.3 185.63 0L185.63 0 177.33-26.3 182.43-26.3 186.73-11.65Q187.13-10.3 187.58-8.25L187.58-8.25Q188.03-6.45 188.08-6.3L188.08-6.3 188.28-6.3Q188.38-6.7 188.58-7.8L188.58-7.8Q189.18-10.65 189.48-11.7L189.48-11.7 193.03-26.3 197.78-26.3 190.93-1.35Q189.58 3.55 187.53 6.33 185.48 9.1 182.18 9.1L182.18 9.1ZM209.93 0.6Q205.08 0.6 202.63-2.78 200.18-6.15 200.18-13.15L200.18-13.15Q200.18-20.15 202.63-23.53 205.08-26.9 209.93-26.9L209.93-26.9Q214.83-26.9 217.25-23.53 219.68-20.15 219.68-13.15L219.68-13.15Q219.68-6.15 217.25-2.78 214.83 0.6 209.93 0.6L209.93 0.6ZM209.93-3.5Q214.78-3.5 214.78-12.2L214.78-12.2 214.78-14.1Q214.78-22.8 209.93-22.8L209.93-22.8Q207.48-22.8 206.3-20.63 205.13-18.45 205.13-14.1L205.13-14.1 205.13-12.2Q205.13-7.85 206.3-5.68 207.48-3.5 209.93-3.5L209.93-3.5ZM231.27 0.6Q224.57 0.6 224.57-7.5L224.57-7.5 224.57-26.3 229.27-26.3 229.27-8.25Q229.27-5.7 230.2-4.65 231.12-3.6 232.92-3.6L232.92-3.6Q234.87-3.6 236.22-5.43 237.57-7.25 237.57-10.15L237.57-10.15 237.57-26.3 242.27-26.3 242.27 0 238.57 0 237.97-3.1 237.67-3.1Q236.62-1.3 234.97-0.35 233.32 0.6 231.27 0.6L231.27 0.6ZM248.07 0L248.07-26.3 251.77-26.3 252.37-22.7 252.67-22.7Q254.07-26.9 257.17-26.9L257.17-26.9Q258.37-26.9 259.27-26.5L259.27-26.5 259.27-21.75 257.67-21.75Q255.52-21.75 254.15-20.3 252.77-18.85 252.77-15.6L252.77-15.6 252.77 0 248.07 0ZM282.17 0.6Q277.32 0.6 275.09-2.73 272.87-6.05 272.87-13.15L272.87-13.15Q272.87-20.2 275.12-23.55 277.37-26.9 282.07-26.9L282.07-26.9Q290.52-26.9 290.52-16.5L290.52-16.5 285.67-16.5Q285.67-19.8 284.87-21.3 284.07-22.8 282.07-22.8L282.07-22.8Q279.87-22.8 278.82-20.63 277.77-18.45 277.77-14.1L277.77-14.1 277.77-12.2Q277.77-7.8 278.82-5.65 279.87-3.5 282.17-3.5L282.17-3.5Q284.12-3.5 284.99-5.08 285.87-6.65 285.87-9.8L285.87-9.8 290.52-9.8Q290.52-5.05 288.42-2.23 286.32 0.6 282.17 0.6L282.17 0.6ZM300.41 0.6Q297.81 0.6 295.71-1.03 293.61-2.65 293.61-6.8L293.61-6.8Q293.61-11.85 297.04-13.8 300.46-15.75 306.81-15.75L306.81-15.75 306.81-18.9Q306.81-20.8 306.01-21.83 305.21-22.85 303.11-22.85L303.11-22.85Q301.11-22.85 300.24-21.78 299.36-20.7 299.36-19.15L299.36-19.15 299.36-18.5 294.71-18.5Q294.66-18.8 294.66-19.6L294.66-19.6Q294.66-23.05 297.01-24.98 299.36-26.9 303.26-26.9L303.26-26.9Q307.36-26.9 309.44-24.95 311.51-23 311.51-19.4L311.51-19.4 311.51-5.25Q311.51-4.4 311.91-3.95 312.31-3.5 312.91-3.5L312.91-3.5 314.41-3.5 314.41-0.2Q313.31 0.45 311.46 0.45L311.46 0.45Q309.81 0.45 308.66-0.43 307.51-1.3 307.11-2.85L307.11-2.85 306.86-2.85Q304.61 0.6 300.41 0.6L300.41 0.6ZM301.86-3.5Q303.91-3.5 305.36-5.2 306.81-6.9 306.81-9.75L306.81-9.75 306.81-11.85Q302.81-11.85 300.64-10.85 298.46-9.85 298.46-7.15L298.46-7.15Q298.46-5.2 299.29-4.35 300.11-3.5 301.86-3.5L301.86-3.5ZM317.91 0L317.91-26.3 321.61-26.3 322.21-22.7 322.51-22.7Q323.91-26.9 327.01-26.9L327.01-26.9Q328.21-26.9 329.11-26.5L329.11-26.5 329.11-21.75 327.51-21.75Q325.36-21.75 323.99-20.3 322.61-18.85 322.61-15.6L322.61-15.6 322.61 0 317.91 0ZM341.41 0.6Q336.36 0.6 333.86-2.7 331.36-6 331.36-13.15L331.36-13.15Q331.36-20.2 333.83-23.55 336.31-26.9 341.31-26.9L341.31-26.9Q345.81-26.9 348.01-23.83 350.21-20.75 350.21-14.1L350.21-14.1 350.21-11.85 336.26-11.85Q336.31-7.55 337.53-5.5 338.76-3.45 341.46-3.45L341.46-3.45Q343.31-3.45 344.43-4.95 345.56-6.45 345.56-9.05L345.56-9.05 350.21-9.05Q350.21-4.55 347.78-1.98 345.36 0.6 341.41 0.6L341.41 0.6ZM336.31-15.75L345.31-15.75Q345.31-19.2 344.31-21.03 343.31-22.85 341.31-22.85L341.31-22.85Q338.91-22.85 337.73-21.1 336.56-19.35 336.31-15.75L336.31-15.75ZM364.21 0.6Q359.16 0.6 356.66-2.7 354.16-6 354.16-13.15L354.16-13.15Q354.16-20.2 356.63-23.55 359.11-26.9 364.11-26.9L364.11-26.9Q368.61-26.9 370.81-23.83 373.01-20.75 373.01-14.1L373.01-14.1 373.01-11.85 359.06-11.85Q359.11-7.55 360.33-5.5 361.56-3.45 364.26-3.45L364.26-3.45Q366.11-3.45 367.23-4.95 368.36-6.45 368.36-9.05L368.36-9.05 373.01-9.05Q373.01-4.55 370.58-1.98 368.16 0.6 364.21 0.6L364.21 0.6ZM359.11-15.75L368.11-15.75Q368.11-19.2 367.11-21.03 366.11-22.85 364.11-22.85L364.11-22.85Q361.71-22.85 360.53-21.1 359.36-19.35 359.11-15.75L359.11-15.75ZM377.9 0L377.9-26.3 381.6-26.3 382.2-22.7 382.5-22.7Q383.9-26.9 387-26.9L387-26.9Q388.2-26.9 389.1-26.5L389.1-26.5 389.1-21.75 387.5-21.75Q385.35-21.75 383.98-20.3 382.6-18.85 382.6-15.6L382.6-15.6 382.6 0 377.9 0Z" opacity="1" transform="matrix(1,0,0,1,0,0)" fill="#374151" class="undefined-text-1" data-fill-palette-color="secondary" id="text-1"></path></svg></g></svg></g></svg></g></svg></g><g></g></svg></g><defs></defs></svg><rect width="343.1296877610978" height="280" fill="none" stroke="none" visibility="hidden"></rect></g></svg></g></svg>